<svg width="17" height="12" viewBox="0 0 17 12" fill="none" xmlns="http://www.w3.org/2000/svg">
<g id="Group">
<path id="Vector" d="M16.0769 0.102448C16.0769 0.102448 15.8441 0.451698 15.3784 1.03378C14.9127 1.61586 14.2143 2.43077 13.2829 3.36209C12.3516 4.40983 11.3038 5.45757 10.1397 6.73814C9.55761 7.32022 8.97552 8.01872 8.27703 8.71721C7.57853 9.41571 6.88005 10.1142 6.06514 10.6963C5.25023 11.2784 4.20249 11.744 3.27117 11.8604C2.22343 11.9768 1.17566 11.5112 0.593585 10.6963C0.360754 10.347 0.12793 9.76495 0.12793 9.29929C0.12793 8.83363 0.360782 8.36797 0.477198 8.01872C0.942861 7.32022 1.29208 6.73815 1.75774 6.27248C2.57265 5.22474 3.15474 4.40982 3.6204 3.82775C4.08606 3.24567 4.3189 2.89642 4.3189 3.01284C4.3189 3.01284 4.20249 3.36209 3.73682 4.06058C3.38758 4.64266 2.8055 5.57398 1.99059 6.62173C1.64134 7.2038 1.17568 7.78588 0.826431 8.36796C0.477184 8.95004 0.360768 9.76495 0.826431 10.347C1.29209 10.9291 2.10699 11.2784 2.9219 11.2784C3.73681 11.1619 4.66815 10.8127 5.48306 10.2306C6.29797 9.64853 6.99645 8.95004 7.57853 8.25155C8.27702 7.55305 8.85911 6.97098 9.44119 6.27248C10.6053 5.10833 11.6531 3.94417 12.7008 3.01284C13.6322 2.08151 14.3307 1.38302 14.9127 0.80094C15.7276 0.335277 16.0769 0.102448 16.0769 0.102448Z" fill="#EB996E"/>
</g>
</svg>
